<svg xmlns="http://www.w3.org/2000/svg" viewBox="0 0 40 40" id="bootstrap"><path d="M23 21.4a2.5 2.5 0 0 0-1.73-.55H17v4.37h4.34a2.46 2.46 0 0 0 1.66-.58 2.16 2.16 0 0 0 .66-1.64 2.09 2.09 0 0 0-.66-1.6Zm-.6-2.82a1.8 1.8 0 0 0 .6-1.44 1.82 1.82 0 0 0-.53-1.49 2.34 2.34 0 0 0-1.47-.43h-4v3.86h4a2.2 2.2 0 0 0 1.44-.5ZM28 8H12a4 4 0 0 0-4 4v16a4 4 0 0 0 4 4h16a4 4 0 0 0 4-4V12a4 4 0 0 0-4-4Zm-2.19 16.85a3 3 0 0 1-.92 1.24 4.52 4.52 0 0 1-1.61.82 7.65 7.65 0 0 1-2.33.31h-6.43v-14h6.8a4.83 4.83 0 0 1 3 .86 3.05 3.05 0 0 1 1.14 2.61A3.09 3.09 0 0 1 25 18.5a3.37 3.37 0 0 1-1.48 1.17 3.05 3.05 0 0 1 2 1.22 4.08 4.08 0 0 1 .67 2.38 3.92 3.92 0 0 1-.38 1.58Z"></path></svg>